<svg version="1.1" xmlns="http://www.w3.org/2000/svg" xmlns:xlink="http://www.w3.org/1999/xlink" width="16.49999" height="13.82424" viewBox="0,0,16.49999,13.82424"><g transform="translate(-231.80565,-172.1048)"><g data-paper-data="{&quot;isPaintingLayer&quot;:true}" fill-rule="nonzero" stroke-linecap="butt" stroke-linejoin="miter" stroke-miterlimit="10" stroke-dasharray="" stroke-dashoffset="0" style="mix-blend-mode: normal"><path d="M237.00009,182.48202c-1.04677,-0.42631 -1.48979,-1.01328 -1.96212,-1.73582c-0.2136,0.04272 -0.42719,0.08544 -0.64079,0.12816l-0.59153,0.01456c0,0 -0.75,0 -0.75,-0.75c0,-0.75 0.75,-0.75 0.75,-0.75l0.29736,0.01457c0.09475,-0.01895 0.18952,-0.0379 0.28427,-0.05685c-0.87995,-2.88691 1.69018,-5.96971 5.13555,-5.99184c2.77875,-0.01785 3.09784,0.16866 4.15863,1.0609c1.49185,1.25483 2.01323,2.89789 1.58992,4.88139c0.28859,0.02481 0.57834,0.03702 0.8676,0.03627h0.16666c0,0 0.75,0 0.75,0.75c0,0.75 -0.75,0.75 -0.75,0.75h-0.16666c-0.46139,-0.00105 -0.92359,-0.0289 -1.38215,-0.08263c-0.43752,0.84353 -1.09278,1.54344 -1.96286,1.9546c-0.08697,0.0411 -4.19491,0.42789 -5.79388,-0.22331z" fill="#f4b41b" stroke="#596db3" stroke-width="2.5"/><path d="M238.08244,183.40102c-0.25882,0.34719 -0.50751,0.78577 -0.87027,1.04274c-0.1345,0.12781 -0.31637,0.20624 -0.51655,0.20624c-0.41421,0 -0.75,-0.33579 -0.75,-0.75c0,-0.10207 0.02039,-0.19937 0.05731,-0.28806c0.59764,-2.20492 4.60649,-3.60071 2.07951,-0.21092z" fill="#f4b41b" stroke="#596db3" stroke-width="2.5"/><path d="M244.28563,184.44619c-0.89287,1.17582 -2.67474,-2.48334 -2.67215,-2.49707c0.07653,-0.40708 0.46857,-0.67505 0.87565,-0.59853c0.33372,0.06273 2.3818,2.32482 1.7965,3.0956z" fill="#f4b41b" stroke="#596db3" stroke-width="2.5"/><path d="M237.00008,182.48202c-1.04677,-0.42631 -1.48979,-1.01328 -1.96212,-1.73582c-0.2136,0.04272 -0.42719,0.08544 -0.64079,0.12816l-0.59153,0.01456c0,0 -0.75,0 -0.75,-0.75c0,-0.75 0.75,-0.75 0.75,-0.75l0.29736,0.01457c0.09475,-0.01895 0.18952,-0.0379 0.28427,-0.05685c-0.87995,-2.88691 1.69018,-5.96971 5.13555,-5.99184c2.77875,-0.01785 3.09784,0.16866 4.15863,1.0609c1.49185,1.25483 2.01323,2.89789 1.58992,4.88139c0.28859,0.02481 0.57834,0.03702 0.8676,0.03627h0.16666c0,0 0.75,0 0.75,0.75c0,0.75 -0.75,0.75 -0.75,0.75h-0.16666c-0.46139,-0.00105 -0.92359,-0.0289 -1.38215,-0.08263c-0.43752,0.84353 -1.09278,1.54344 -1.96286,1.9546c-0.08697,0.0411 -4.19491,0.42789 -5.79388,-0.22331z" fill="#6fa0de" stroke="none" stroke-width="0.5"/><path d="M234.98169,175.74066c0.92265,-1.55598 2.59181,-2.37333 4.54115,-2.38585c2.77875,-0.01785 3.09784,0.16866 4.15863,1.0609c0.27762,0.23351 -2.67029,-0.28699 -5.014,0.22964c-2.32082,0.51159 -4.03808,1.68945 -3.68578,1.09531z" fill="#b0c7eb" stroke="none" stroke-width="0.5"/><path d="M239.50209,177.48946c0,-0.27614 0.22386,-0.5 0.5,-0.5c0.27614,0 0.5,0.22386 0.5,0.5c0,0.27614 -0.22386,0.5 -0.5,0.5c-0.27614,0 -0.5,-0.22386 -0.5,-0.5z" fill="#3c3b5a" stroke="none" stroke-width="0.5"/><path d="M241.50209,176.48946c0,-0.27614 0.22386,-0.5 0.5,-0.5c0.27614,0 0.5,0.22386 0.5,0.5c0,0.27614 -0.22386,0.5 -0.5,0.5c-0.27614,0 -0.5,-0.22386 -0.5,-0.5z" fill="#3c3b5a" stroke="none" stroke-width="0.5"/><path d="M238.08244,183.40102c-0.25882,0.34719 -0.50751,0.78577 -0.87027,1.04274c-0.1345,0.12781 -0.31637,0.20624 -0.51655,0.20624c-0.41421,0 -0.75,-0.33579 -0.75,-0.75c0,-0.10207 0.02039,-0.19937 0.05731,-0.28806c0.59764,-2.20492 4.60649,-3.60071 2.07951,-0.21092z" fill="#6fa0de" stroke="none" stroke-width="0.5"/><path d="M244.28562,184.44619c-0.89287,1.17582 -2.67474,-2.48334 -2.67215,-2.49707c0.07653,-0.40708 0.46857,-0.67505 0.87565,-0.59853c0.33372,0.06273 2.3818,2.32482 1.7965,3.0956z" fill="#6fa0de" stroke="none" stroke-width="0.5"/><path d="M243.1044,177.08453c0.05066,-0.14176 0.1722,-0.31181 0.4638,-0.31181c0.5,0 0.5,0.5 0.5,0.5l-0.12629,0.37763c-1.25637,1.4134 -3.02982,2.0186 -4.90407,1.56198c0,0 -0.48507,-0.12127 -0.3638,-0.60634c0.12127,-0.48507 0.60634,-0.36381 0.60634,-0.36381c1.46429,0.37772 2.83187,-0.10257 3.82403,-1.15766z" fill="#3c3b5a" stroke="none" stroke-width="0.5"/></g></g></svg>