<svg version="1.1" xmlns="http://www.w3.org/2000/svg" xmlns:xlink="http://www.w3.org/1999/xlink" width="13.81842" height="12.53128" viewBox="0,0,13.81842,12.53128"><g transform="translate(-234.00837,-175.48056)"><g data-paper-data="{&quot;isPaintingLayer&quot;:true}" fill-rule="nonzero" stroke-linecap="butt" stroke-linejoin="miter" stroke-miterlimit="10" stroke-dasharray="" stroke-dashoffset="0" style="mix-blend-mode: normal"><path d="M247.05435,177.28187c1.00573,0 0.88574,2.65181 0.44791,3.3869c-0.14335,0.24069 -0.34995,0.84814 -1.04508,1.07056c-0.00619,0.39427 -0.56638,1.99073 -1.40045,2.39339c0,0.53511 0,1.17868 0,1.71246c0,0 0,0.75 -0.75,0.75c-0.75,0 -0.75,-0.75 -0.75,-0.75c0,-0.38235 0,-0.87581 0,-1.25816c-0.27446,0.04048 -0.56153,0.06234 -0.86111,0.06371c-0.53894,0 -1.11461,0.04596 -1.68309,0.03824c-0.0886,0.43551 -0.14941,0.87758 -0.17994,1.32075l0.00191,0.00212c0,0 0,0.74999 -0.74998,0.75h-0.00002c-0.74998,-0.00001 -0.74998,-0.75 -0.74998,-0.75l0.0019,-0.10899c0.03549,-0.48197 0.10017,-0.96269 0.19199,-1.43744c-0.08999,-0.032 -0.17859,-0.06828 -0.26556,-0.10938c-0.87008,-0.41116 -2.12058,-1.11107 -2.5581,-1.9546c-0.45856,0.05373 -0.80314,-1.42883 -0.51455,-1.45364c-0.42331,-1.9835 0.09807,-3.15037 1.58992,-4.4052c1.06079,-0.89224 1.37988,-1.07875 4.15863,-1.0609c2.46194,0.01581 3.88175,1.11823 4.51043,3.07143c0.0053,-0.01789 -0.40836,-1.27125 0.60516,-1.27125z" fill="#f4b41b" stroke="#596db3" stroke-width="2.5"/><path d="M235.77131,183.40003c-1.47638,-0.22419 0.68998,-2.99484 0.82621,-3.05853c0.37522,-0.17542 0.82162,-0.01343 0.99703,0.3618c0.14041,0.30034 0.06467,0.64627 -0.16358,0.86234c-0.09775,0.91131 -1.01365,1.93248 -1.65967,1.83439z" data-paper-data="{&quot;index&quot;:null}" fill="#f4b41b" stroke="#596db3" stroke-width="2.5"/><path d="M247.05436,177.28188c1.00574,0 0.88574,2.65181 0.44792,3.3869c-0.14335,0.24068 -0.34995,0.84813 -1.04508,1.07055c-0.0062,0.39427 -0.56638,1.99073 -1.40045,2.39339c0,0.53511 0,1.17868 0,1.71246c0,0 0,0.75 -0.75,0.75c-0.75,0 -0.75,-0.75 -0.75,-0.75c0,-0.38235 0,-0.87581 0,-1.25816c-0.27446,0.04048 -0.56153,0.06234 -0.86111,0.06371c-0.53894,0 -1.11461,0.04596 -1.68309,0.03824c-0.0886,0.43551 -0.14941,0.87758 -0.17994,1.32075l0.00191,0.00212c0,0 0,0.74999 -0.74998,0.75h-0.00002c-0.74998,-0.00001 -0.74998,-0.75 -0.74998,-0.75l0.0019,-0.10899c0.03549,-0.48197 0.10017,-0.96269 0.19199,-1.43744c-0.08999,-0.032 -0.17859,-0.06828 -0.26556,-0.10938c-0.87008,-0.41116 -2.12058,-1.11107 -2.5581,-1.9546c-0.45856,0.05373 -0.80314,-1.42883 -0.51455,-1.45364c-0.42331,-1.9835 0.09807,-3.15037 1.58992,-4.4052c1.06079,-0.89224 1.37988,-1.07875 4.15863,-1.0609c2.46194,0.01581 3.88175,1.11823 4.51043,3.07143c0.0053,-0.01789 -0.40837,-1.27124 0.60516,-1.27124z" fill="#6fa0de" stroke="none" stroke-width="0.5"/><path d="M242.79414,176.77225c-2.34371,-0.51663 -5.29162,0.00387 -5.014,-0.22964c1.06079,-0.89224 1.37988,-1.07875 4.15863,-1.0609c1.94934,0.01252 3.26136,0.68106 4.18401,2.23704c0.3523,0.59414 -1.00782,-0.43491 -3.32864,-0.9465z" data-paper-data="{&quot;index&quot;:null}" fill="#b0c7eb" stroke="none" stroke-width="0.5"/><path d="M237.43099,181.56567c-0.09775,0.9113 -1.01365,1.93248 -1.65967,1.83439c-1.47638,-0.22419 0.68997,-2.99483 0.8262,-3.05853c0.37523,-0.17543 0.82162,-0.01344 0.99704,0.3618c0.1404,0.30035 0.06465,0.64628 -0.16359,0.86235z" data-paper-data="{&quot;index&quot;:null}" fill="#6fa0de" stroke="none" stroke-width="0.5"/><path d="M242.26058,179.92402c0,0 0.48507,-0.12126 0.60634,0.36381c0.12127,0.48507 -0.3638,0.60634 -0.3638,0.60634c-1.87425,0.45661 -3.64769,-0.14858 -4.90407,-1.56198l-0.12629,-0.37763c0,0 0,-0.5 0.5,-0.5c0.2916,0 0.41314,0.17005 0.4638,0.31181c0.99216,1.05508 2.35974,1.53538 3.82403,1.15766z" data-paper-data="{&quot;index&quot;:null}" fill="#213323" stroke="none" stroke-width="0.5"/><path d="M241.68391,179.62583c-0.27614,0 -0.5,-0.22386 -0.5,-0.5c0,-0.27614 0.22386,-0.5 0.5,-0.5c0.27614,0 0.5,0.22386 0.5,0.5c0,0.27614 -0.22386,0.5 -0.5,0.5z" data-paper-data="{&quot;index&quot;:null}" fill="#213323" stroke="none" stroke-width="0.5"/><path d="M239.68391,178.62583c-0.27614,0 -0.5,-0.22386 -0.5,-0.5c0,-0.27614 0.22386,-0.5 0.5,-0.5c0.27614,0 0.5,0.22386 0.5,0.5c0,0.27614 -0.22386,0.5 -0.5,0.5z" data-paper-data="{&quot;index&quot;:null}" fill="#213323" stroke="none" stroke-width="0.5"/></g></g></svg>