<svg version="1.1" xmlns="http://www.w3.org/2000/svg" xmlns:xlink="http://www.w3.org/1999/xlink" width="13.38863" height="12.14523" viewBox="0,0,13.38863,12.14523"><g transform="translate(-233.30569,-173.92738)"><g data-paper-data="{&quot;isPaintingLayer&quot;:true}" fill-rule="nonzero" stroke-linecap="butt" stroke-linejoin="miter" stroke-miterlimit="10" stroke-dasharray="" stroke-dashoffset="0" style="mix-blend-mode: normal"><path d="M239.53415,184.82261c-0.15548,-0.00071 -1.16444,-0.09016 -2.11578,-0.51573c-0.88172,-0.39443 -1.70514,-1.11284 -1.96938,-1.45412c-0.58669,-0.75774 -0.9377,-1.67375 -0.88877,-1.68354c-0.87995,-2.88691 1.69018,-5.96971 5.13555,-5.99184c2.77875,-0.01785 3.09784,0.16866 4.15863,1.0609c1.49185,1.25483 1.80815,2.84297 1.58992,4.88139c-0.21823,2.03842 -1.60733,2.99708 -2.47741,3.40824c-0.04561,0.02155 -0.77676,0.28905 -1.59905,0.36026c-0.74568,0.06458 -1.57742,-0.06556 -1.83372,-0.06556z" fill="#b7de90" stroke="#4e5ab3" stroke-width="2.5"/><path d="M239.53415,184.8226c-0.15548,-0.00071 -1.16444,-0.09016 -2.11578,-0.51573c-0.88172,-0.39443 -1.70514,-1.11284 -1.96938,-1.45412c-0.58669,-0.75774 -0.9377,-1.67375 -0.88877,-1.68354c-0.87995,-2.88691 1.69018,-5.96971 5.13555,-5.99184c2.77875,-0.01785 3.09784,0.16866 4.15863,1.0609c1.49185,1.25483 1.80815,2.84297 1.58992,4.88139c-0.21823,2.03842 -1.60733,2.99708 -2.47741,3.40824c-0.04561,0.02155 -0.77676,0.28905 -1.59905,0.36026c-0.74568,0.06458 -1.57742,-0.06556 -1.83372,-0.06556z" fill="#6f9bde" stroke="none" stroke-width="0.5"/><path d="M235.15463,177.56322c0.92265,-1.55598 2.59181,-2.37333 4.54115,-2.38585c2.77875,-0.01785 3.09784,0.16866 4.15863,1.0609c0.27762,0.23351 -2.67029,-0.28699 -5.014,0.22964c-2.32082,0.51159 -4.03808,1.68945 -3.68578,1.09531z" fill="#b0c1eb" stroke="none" stroke-width="0.5"/><path d="M239.36516,180.00868c0,-0.27614 0.22386,-0.5 0.5,-0.5c0.27614,0 0.5,0.22386 0.5,0.5c0,0.27614 -0.22386,0.5 -0.5,0.5c-0.27614,0 -0.5,-0.22386 -0.5,-0.5z" fill="#3c3b5a" stroke="none" stroke-width="0.5"/><path d="M241.36516,179.00868c0,-0.27614 0.22386,-0.5 0.5,-0.5c0.27614,0 0.5,0.22386 0.5,0.5c0,0.27614 -0.22386,0.5 -0.5,0.5c-0.27614,0 -0.5,-0.22386 -0.5,-0.5z" fill="#3c3b5a" stroke="none" stroke-width="0.5"/><path d="M242.83113,179.55448c0.05066,-0.14176 0.1722,-0.31182 0.46379,-0.31182c0.5,0 0.5,0.5 0.5,0.5l-0.1263,0.37764c-1.25637,1.4134 -3.02981,2.01859 -4.90406,1.56198c0,0 -0.48507,-0.12127 -0.3638,-0.60634c0.12127,-0.48507 0.60634,-0.3638 0.60634,-0.3638c1.46429,0.37772 2.83187,-0.10257 3.82403,-1.15766z" fill="#3c3b5a" stroke="none" stroke-width="0.5"/></g></g></svg>