<svg version="1.1" xmlns="http://www.w3.org/2000/svg" xmlns:xlink="http://www.w3.org/1999/xlink" width="98.94301" height="97.30585" viewBox="0,0,98.94301,97.30585"><g transform="translate(-190.77153,-134.14555)"><g data-paper-data="{&quot;isPaintingLayer&quot;:true}" fill-rule="nonzero" stroke-linecap="butt" stroke-linejoin="miter" stroke-miterlimit="10" stroke-dasharray="" stroke-dashoffset="0" style="mix-blend-mode: normal"><path d="M248.9383,146.77739c-0.67546,1.8624 -2.84015,2.29534 -2.84015,2.29534l-2.5,0.5c-5.48669,0.92294 -9.65257,-1.20546 -14.58767,-3.17947c-0.78906,-0.31562 -1.72953,-0.14139 -2.5,-0.5c-2.03929,-0.94917 -3.65787,-1.94961 -5.1559,-3.04757l-4.09568,-1.36523c-1.53234,-0.47127 -2.64618,-1.89801 -2.64618,-3.58491c0,-2.07107 1.67893,-3.75 3.75,-3.75h2.5v0.19432l0.36952,-0.17607c4.34269,0.84051 9.50232,1.13889 13.60232,2.78266c1.30112,0.52165 2.40773,1.44501 3.53348,2.2803c0.32754,0.24303 0.39699,0.83826 0.79421,0.93077c0.26602,0.06195 0.30894,-0.46683 0.53412,-0.62141c0.85359,-0.58597 1.71847,-1.18153 2.67378,-1.58073c1.16354,-0.48622 2.45627,-0.60171 3.63312,-1.05475c1.01814,-0.39194 1.83608,-1.39368 2.9244,-1.46964c0.09163,-0.00639 0.18325,-0.01173 0.27486,-0.01607l-0.02565,-0.07694l2.91696,-0.97232c0.39631,-0.14248 0.82354,-0.22012 1.2689,-0.22012c2.07107,0 3.75,1.67893 3.75,3.75c0,1.24247 -0.60425,2.34381 -1.53491,3.02619l-1.6458,1.23435c-1.46765,1.92367 -3.12078,3.21638 -4.9937,4.6213z" data-paper-data="{&quot;index&quot;:null}" fill="#62b066" stroke="none" stroke-width="0.5"/><path d="M243.22204,225.2014c-2.00353,0 -8.50533,1.01732 -14.33439,0.51249c-6.42792,-0.55666 -12.1434,-2.64773 -12.49994,-2.81619c-6.80151,-3.21409 -17.66025,-10.70803 -19.36618,-26.64258c-1.70593,-15.93455 0.76662,-28.34921 12.42857,-38.15835c8.2923,-6.97474 10.78666,-8.43271 32.50845,-8.29317c26.93282,0.17299 47.0238,24.27157 40.14514,46.83885c0.38249,0.07653 -2.36139,7.23708 -6.94761,13.16041c-2.06559,2.66782 -8.50235,8.28371 -15.39485,11.36701c-7.43673,3.32673 -16.53919,4.03153 -16.53919,4.03153z" data-paper-data="{&quot;index&quot;:null}" fill="#b7de90" stroke="#b31a00" stroke-width="12.5"/><path d="M224.88595,220.45819c-1.75764,-0.96168 -7.94979,-3.19004 -12.82115,-6.43083c-5.37184,-3.57371 -9.38216,-8.15154 -9.61409,-8.47046c-4.42403,-6.08432 -10.35304,-17.87067 -4.20111,-32.66843c6.15193,-14.79777 14.27999,-24.50198 29.21902,-27.50959c10.62243,-2.13848 13.51048,-2.22024 32.49941,8.32851c23.54436,13.07936 29.60243,43.86391 12.73581,60.35983c0.29881,0.25073 -5.54534,5.21543 -12.41186,8.21044c-3.09262,1.34893 -11.435,3.18598 -18.96156,2.58252c-8.12084,-0.65114 -15.37565,-3.82351 -16.44455,-4.40202z" data-paper-data="{&quot;index&quot;:null}" fill="#f01f1f" stroke="none" stroke-width="0.5"/><path d="M281.34065,188.60153c0.18666,5.39633 -7.1703,-9.12456 -21.16628,-21.341c-14.13404,-12.3369 -36.303,-19.8285 -33.52299,-20.38817c10.62243,-2.13848 13.51048,-2.22024 32.49941,8.32851c13.32105,7.4001 21.70087,19.26823 22.18985,33.40065z" data-paper-data="{&quot;index&quot;:null}" fill="#eb8167" stroke="none" stroke-width="0.5"/><path d="M255.27098,183.97393c0,-1.51096 1.26192,-2.73586 2.81855,-2.73586c1.55663,0 2.81855,1.2249 2.81855,2.73586c0,1.51096 -1.26192,2.73586 -2.81855,2.73586c-1.55663,0 -2.81855,-1.2249 -2.81855,-2.73586z" data-paper-data="{&quot;index&quot;:null}" fill="#af0000" stroke="none" stroke-width="0.5"/><path d="M266.54519,178.50221c0,-1.51096 1.26192,-2.73586 2.81855,-2.73586c1.55663,0 2.81855,1.2249 2.81855,2.73586c0,1.51096 -1.26192,2.73586 -2.81855,2.73586c-1.55663,0 -2.81855,-1.2249 -2.81855,-2.73586z" data-paper-data="{&quot;index&quot;:null}" fill="#af0000" stroke="none" stroke-width="0.5"/><path d="M276.25199,184.03215c0.20973,-0.56965 0.71289,-1.25299 1.92008,-1.25299c2.06994,0 2.06994,2.00921 2.06994,2.00921l-0.52283,1.51748c-5.20122,5.67965 -12.5431,8.1116 -20.30227,6.2767c0,0 -2.00813,-0.48731 -1.50609,-2.43653c0.50204,-1.94922 2.51018,-1.46194 2.51018,-1.46194c6.06199,1.51784 11.72361,-0.41217 15.83103,-4.65197z" data-paper-data="{&quot;index&quot;:null}" fill="#af0000" stroke="none" stroke-width="0.5"/><path d="M268.79174,170.83644c0.28557,-0.77567 0.97071,-1.70614 2.61449,-1.70614c2.81855,0 2.81855,2.73586 2.81855,2.73586l-0.71191,2.06629c-7.08229,7.73373 -17.07941,11.04523 -27.64476,8.54673c0,0 -2.73438,-0.66356 -2.05077,-3.31773c0.68361,-2.65417 3.418,-1.99067 3.418,-1.99067c8.25435,2.06678 15.96354,-0.56123 21.55645,-6.3344z" data-paper-data="{&quot;index&quot;:null}" fill="#af0000" stroke="none" stroke-width="0.5"/></g></g></svg>