<svg version="1.1" xmlns="http://www.w3.org/2000/svg" xmlns:xlink="http://www.w3.org/1999/xlink" width="16.49999" height="14.79801" viewBox="0,0,16.49999,14.79801"><g transform="translate(-231.80562,-174.52148)"><g data-paper-data="{&quot;isPaintingLayer&quot;:true}" fill-rule="nonzero" stroke-linecap="butt" stroke-linejoin="miter" stroke-miterlimit="10" stroke-dasharray="" stroke-dashoffset="0" style="mix-blend-mode: normal"><path d="M241.97229,188.06949c-0.75,0 -0.75,-0.75 -0.75,-0.75l0.00191,-0.00212c-0.03053,-0.44317 -0.09134,-1.42691 -0.17994,-1.86242c-0.56848,0.00772 -1.14415,-0.03824 -1.68309,-0.03824c-0.29958,-0.00137 -0.58665,-0.02323 -0.86111,-0.06371c0,0.38235 0,1.79983 0,1.79983c0,0 0,0.75 -0.75,0.75c-0.75,0 -0.75,-0.75 -0.75,-0.75c0,-0.53378 0,-1.71902 0,-2.25413c-0.83407,-0.40266 -1.48979,-1.01328 -1.96212,-1.73582c-0.2136,0.04272 -0.42719,0.08544 -0.64079,0.12816l-0.59153,0.01456c0,0 -0.75,0 -0.75,-0.75c0,-0.75 0.75,-0.75 0.75,-0.75l0.29736,0.01457c0.09475,-0.01895 0.18952,-0.0379 0.28427,-0.05685c-0.87995,-2.88691 1.69018,-5.96971 5.13555,-5.99184c2.77875,-0.01785 3.09784,0.16866 4.15863,1.0609c1.49185,1.25483 2.01323,2.89789 1.58992,4.88139c0.28859,0.02481 0.57834,0.03702 0.8676,0.03627h0.16666c0,0 0.75,0 0.75,0.75c0,0.75 -0.75,0.75 -0.75,0.75h-0.16666c-0.46139,-0.00105 -0.92359,-0.0289 -1.38215,-0.08263c-0.43752,0.84353 -1.09278,1.54344 -1.96286,1.9546c-0.08697,0.0411 -0.17557,0.07738 -0.26556,0.10938c0.09182,0.47475 0.1565,1.49714 0.19199,1.97911l0.0019,0.10899c0,0 0,0.75 -0.75,0.75z" fill="#f4b41b" stroke="#596db3" stroke-width="2.5"/><path d="M241.97229,188.06948c-0.75,0 -0.75,-0.75 -0.75,-0.75l0.00191,-0.00212c-0.03053,-0.44317 -0.09134,-1.42691 -0.17994,-1.86242c-0.56848,0.00772 -1.14415,-0.03824 -1.68309,-0.03824c-0.29958,-0.00137 -0.58665,-0.02323 -0.86111,-0.06371c0,0.38235 0,1.30636 0,1.68871v0.11112c0,0 0,0.75 -0.75,0.75c-0.75,0 -0.75,-0.75 -0.75,-0.75c0,-0.53378 0,-1.71902 0,-2.25413c-0.83407,-0.40266 -1.48979,-1.01328 -1.96212,-1.73582c-0.2136,0.04272 -0.42719,0.08544 -0.64079,0.12816l-0.59153,0.01456c0,0 -0.75,0 -0.75,-0.75c0,-0.75 0.75,-0.75 0.75,-0.75l0.29736,0.01457c0.09475,-0.01895 0.18952,-0.0379 0.28427,-0.05685c-0.87995,-2.88691 1.69018,-5.96971 5.13555,-5.99184c2.77875,-0.01785 3.09784,0.16866 4.15863,1.0609c1.49185,1.25483 2.01323,2.89789 1.58992,4.88139c0.28859,0.02481 0.57834,0.03702 0.8676,0.03627h0.16666c0,0 0.75,0 0.75,0.75c0,0.75 -0.75,0.75 -0.75,0.75h-0.16666c-0.46139,-0.00105 -0.92359,-0.0289 -1.38215,-0.08263c-0.43752,0.84353 -1.09278,1.54344 -1.96286,1.9546c-0.08697,0.0411 -0.17557,0.07738 -0.26556,0.10938c0.09182,0.47475 0.1565,1.49714 0.19199,1.97911l0.0019,0.10899c0,0 0,0.75 -0.75,0.75z" fill="#6fa0de" stroke="none" stroke-width="0.5"/><path d="M234.98167,178.15733c0.92265,-1.55598 2.59181,-2.37333 4.54115,-2.38585c2.77875,-0.01785 3.09784,0.16866 4.15863,1.0609c0.27762,0.23351 -2.67029,-0.28699 -5.014,0.22964c-2.32082,0.51159 -4.03808,1.68945 -3.68578,1.09531z" fill="#b0c7eb" stroke="none" stroke-width="0.5"/><path d="M239.50207,179.90613c0,-0.27614 0.22386,-0.5 0.5,-0.5c0.27614,0 0.5,0.22386 0.5,0.5c0,0.27614 -0.22386,0.5 -0.5,0.5c-0.27614,0 -0.5,-0.22386 -0.5,-0.5z" fill="#3c3b5a" stroke="none" stroke-width="0.5"/><path d="M241.50207,178.90613c0,-0.27614 0.22386,-0.5 0.5,-0.5c0.27614,0 0.5,0.22386 0.5,0.5c0,0.27614 -0.22386,0.5 -0.5,0.5c-0.27614,0 -0.5,-0.22386 -0.5,-0.5z" fill="#3c3b5a" stroke="none" stroke-width="0.5"/><path d="M242.96803,179.31181c0.05066,-0.14176 0.1722,-0.31181 0.4638,-0.31181c0.5,0 0.5,0.5 0.5,0.5l-0.12629,0.37763c-1.25637,1.4134 -3.02982,2.0186 -4.90407,1.56198c0,0 -0.48507,-0.12127 -0.3638,-0.60634c0.12127,-0.48507 0.60634,-0.36381 0.60634,-0.36381c1.46429,0.37772 2.83187,-0.10257 3.82403,-1.15766z" fill="#3c3b5a" stroke="none" stroke-width="0.5"/></g></g></svg>