<svg version="1.1" xmlns="http://www.w3.org/2000/svg" xmlns:xlink="http://www.w3.org/1999/xlink" width="16.22521" height="14.25634" viewBox="0,0,16.22521,14.25634"><g transform="translate(-232.02431,-175.06317)"><g data-paper-data="{&quot;isPaintingLayer&quot;:true}" fill-rule="nonzero" stroke-linecap="butt" stroke-linejoin="miter" stroke-miterlimit="10" stroke-dasharray="" stroke-dashoffset="0" style="mix-blend-mode: normal"><path d="M235.34741,182.34174c0.13054,-0.0505 0.27668,-0.06508 0.42387,-0.03423c0.4054,0.08499 0.66514,0.48254 0.58015,0.88793c-0.06803,0.32449 -0.33628,0.55565 -0.64854,0.59142c-0.62528,0.67012 -1.94024,1.08394 -2.42858,0.47062c-0.99462,-1.24918 1.29927,-2.0336 2.0731,-1.91574z" fill="#f4b41b" stroke="#596db3" stroke-width="2.5"/><path d="M244.30829,183.63663c-0.3128,-0.03069 -0.58478,-0.25747 -0.65807,-0.58081c-0.09157,-0.40396 0.16167,-0.80568 0.56563,-0.89724c0.14667,-0.03324 0.29304,-0.02104 0.42438,0.02733c0.77181,-0.13044 3.13261,0.79926 2.10397,1.88178c-0.4501,0.47367 -1.79981,0.2288 -2.43591,-0.43106z" data-paper-data="{&quot;index&quot;:null}" fill="#f4b41b" stroke="#596db3" stroke-width="2.5"/><path d="M241.97231,188.06951c-0.75,0 -0.75,-0.75 -0.75,-0.75l0.00191,-0.00212c-0.03053,-0.44317 -0.09134,-0.88524 -0.17994,-1.32075c-0.56848,0.00772 -1.14415,-0.03824 -1.68309,-0.03824c-0.29958,-0.00137 -0.58665,-0.02323 -0.86111,-0.06371c0,0.38235 0,1.25816 0,1.25816c0,0 0,0.75 -0.75,0.75c-0.75,0 -0.75,-0.75 -0.75,-0.75c0,-0.53378 0,-1.17735 0,-1.71246c-0.83407,-0.40266 -1.48979,-1.01328 -1.96212,-1.73582c-0.2136,0.04272 -0.74544,-1.38061 -0.65069,-1.39956c-0.87995,-2.88691 1.69018,-5.96971 5.13555,-5.99184c2.77875,-0.01785 3.09784,0.16866 4.15863,1.0609c1.49185,1.25483 2.01323,2.89789 1.58992,4.88139c0.28859,0.02481 -0.05599,1.50737 -0.51455,1.45364c-0.43752,0.84353 -1.09278,1.54344 -1.96286,1.9546c-0.08697,0.0411 -0.17557,0.07738 -0.26556,0.10938c0.09182,0.47475 0.1565,0.95547 0.19199,1.43744l0.0019,0.10899c0,0 0,0.75 -0.75,0.75z" fill="#f4b41b" stroke="#596db3" stroke-width="2.5"/><path d="M241.97231,188.0695c-0.75,0 -0.75,-0.75 -0.75,-0.75l0.00191,-0.00212c-0.03053,-0.44317 -0.09134,-0.88524 -0.17994,-1.32075c-0.56848,0.00772 -1.14415,-0.03824 -1.68309,-0.03824c-0.29958,-0.00137 -0.58665,-0.02323 -0.86111,-0.06371c0,0.38235 0,0.76469 0,1.14704v0.11112c0,0 0,0.75 -0.75,0.75c-0.75,0 -0.75,-0.75 -0.75,-0.75c0,-0.53378 0,-1.17735 0,-1.71246c-0.83407,-0.40266 -1.48979,-1.01328 -1.96212,-1.73582c-0.2136,0.04272 -0.74544,-1.38061 -0.65069,-1.39956c-0.87995,-2.88691 1.69018,-5.96971 5.13555,-5.99184c2.77875,-0.01785 3.09784,0.16866 4.15863,1.0609c1.49185,1.25483 2.01323,2.89789 1.58992,4.88139c0.28859,0.02481 -0.05599,1.50737 -0.51455,1.45364c-0.43752,0.84353 -1.09278,1.54344 -1.96286,1.9546c-0.08697,0.0411 -0.17557,0.07738 -0.26556,0.10938c0.09182,0.47475 0.1565,0.95547 0.19199,1.43744l0.0019,0.10899c0,0 0,0.75 -0.75,0.75z" fill="#6fa0de" stroke="none" stroke-width="0.5"/><path d="M234.98167,178.69901c0.92265,-1.55598 2.59181,-2.37333 4.54115,-2.38585c2.77875,-0.01785 3.09784,0.16866 4.15863,1.0609c0.27762,0.23351 -2.67029,-0.28699 -5.014,0.22964c-2.32082,0.51159 -4.03808,1.68945 -3.68578,1.09531z" fill="#b0c7eb" stroke="none" stroke-width="0.5"/><path d="M239.50207,180.44782c0,-0.27614 0.22386,-0.5 0.5,-0.5c0.27614,0 0.5,0.22386 0.5,0.5c0,0.27614 -0.22386,0.5 -0.5,0.5c-0.27614,0 -0.5,-0.22386 -0.5,-0.5z" fill="#3c3b5a" stroke="none" stroke-width="0.5"/><path d="M241.50207,179.44782c0,-0.27614 0.22386,-0.5 0.5,-0.5c0.27614,0 0.5,0.22386 0.5,0.5c0,0.27614 -0.22386,0.5 -0.5,0.5c-0.27614,0 -0.5,-0.22386 -0.5,-0.5z" fill="#3c3b5a" stroke="none" stroke-width="0.5"/><path d="M233.27431,184.2575c-1.0461,-1.06564 1.29927,-2.03361 2.0731,-1.91575c0.13053,-0.0505 0.27668,-0.06509 0.42387,-0.03423c0.40541,0.08499 0.66514,0.48253 0.58015,0.88793c-0.06803,0.32449 -0.33629,0.55566 -0.64855,0.59143c-0.62528,0.67011 -1.97084,0.9369 -2.42858,0.47061z" fill="#6fa0de" stroke="none" stroke-width="0.5"/><path d="M244.30829,183.63664c-0.31279,-0.03069 -0.58478,-0.25747 -0.65808,-0.58081c-0.09157,-0.40397 0.16167,-0.80568 0.56564,-0.89724c0.14667,-0.03324 0.29304,-0.02104 0.42437,0.02733c0.77181,-0.13044 3.13261,0.79926 2.10397,1.88178c-0.4501,0.47367 -1.79981,0.22879 -2.43591,-0.43106z" data-paper-data="{&quot;index&quot;:null}" fill="#6fa0de" stroke="none" stroke-width="0.5"/><path d="M242.96804,179.99362c0.05066,-0.14176 0.1722,-0.31182 0.46379,-0.31182c0.5,0 0.5,0.5 0.5,0.5l-0.1263,0.37764c-1.25637,1.4134 -3.02981,2.01859 -4.90406,1.56198c0,0 -0.48507,-0.12127 -0.3638,-0.60634c0.12127,-0.48507 0.60634,-0.3638 0.60634,-0.3638c1.46429,0.37772 2.83187,-0.10257 3.82403,-1.15766z" fill="#3c3b5a" stroke="none" stroke-width="0.5"/></g></g></svg>